<?xml version="1.0" encoding="utf-8"?>
<!-- Generator: Adobe Illustrator 18.1.1, SVG Export Plug-In . SVG Version: 6.00 Build 0)  -->
<svg version="1.1" id="Capa_1" xmlns="http://www.w3.org/2000/svg" xmlns:xlink="http://www.w3.org/1999/xlink" x="0px" y="0px"
	 viewBox="0 0 500 500" enable-background="new 0 0 500 500" xml:space="preserve">
<rect x="33.9" y="105.9" fill="#173544" width="466.1" height="271.2"/>
<circle fill="#CECECE" cx="59.3" cy="131.4" r="8.5"/>
<circle fill="#CECECE" cx="59.3" cy="351.7" r="8.5"/>
<circle fill="#CECECE" cx="474.6" cy="131.4" r="8.5"/>
<circle fill="#CECECE" cx="474.6" cy="351.7" r="8.5"/>
<rect x="0" y="233.1" fill="#939393" width="25.4" height="110.2"/>
<path fill="#347EAB" d="M25.4,224.6H8.5c-4.7,0-8.5-3.8-8.5-8.5c0-4.7,3.8-8.5,8.5-8.5h16.9c4.7,0,8.5,3.8,8.5,8.5
	C33.9,220.8,30.1,224.6,25.4,224.6z"/>
<path fill="#347EAB" d="M25.4,368.6H8.5c-4.7,0-8.5-3.8-8.5-8.5s3.8-8.5,8.5-8.5h16.9c4.7,0,8.5,3.8,8.5,8.5S30.1,368.6,25.4,368.6z
	"/>
<rect x="0" y="131.4" fill="#939393" width="25.4" height="33.9"/>
<g>
	<rect x="101.7" y="377.1" fill="#347EAB" width="203.4" height="33.9"/>
</g>
<path fill="#CECECE" d="M206.7,327.6c-14.9-17.2-25.2-42.3-27.9-71c0-0.2,0-0.4-0.1-0.6c-0.4-4.7-0.7-9.5-0.7-14.4s0.3-9.7,0.7-14.4
	c0-0.2,0-0.4,0.1-0.6c2.7-28.6,13-53.8,27.9-71c6.6-8.9,14.2-17,22.6-24.1h-85.2c-42.1,0-76.3,49.3-76.3,110.2
	s34.1,110.2,76.3,110.2h85.2C220.8,344.6,213.3,336.4,206.7,327.6z"/>
<path fill="#0E212B" d="M295.3,351.7c-45-17.8-75-61.6-75-110.2s29.9-92.3,75-110.2h87.4c45,17.8,75,61.6,75,110.2
	s-29.9,92.3-75,110.2H295.3z"/>
<circle fill="#DDDDDD" cx="339" cy="241.5" r="25.4"/>
<path fill="#347EAB" d="M422.9,252c1-4.2-3-7.7-7.2-6.4c-14.1,4.5-34.7,3.8-51.6-7.3c0.1,1.1,0.3,2.1,0.3,3.2
	c0,11.1-7.1,20.4-16.9,23.9c0,0,32.4,23.8,59.3,27C414.4,283.6,420,264.3,422.9,252z"/>
<path fill="#347EAB" d="M254.4,231c-1,4.2,3,7.7,7.2,6.4c14.1-4.5,34.7-3.8,51.6,7.3c-0.1-1.1-0.3-2.1-0.3-3.2
	c0-11.1,7.1-20.4,16.9-23.9c0,0-32.4-23.8-59.3-27C262.9,199.5,257.3,218.8,254.4,231z"/>
<path fill="#347EAB" d="M291,311.8c3.3,2.8,8.3,0.8,8.9-3.5c2.3-14.6,12.3-32.6,30-42.7c-1-0.4-2-0.7-3-1.2
	c-9.8-5-14.9-15.6-13.6-25.9c0,0-35.9,18.1-51,40.6C266.8,289.9,281.5,303.7,291,311.8z"/>
<path fill="#347EAB" d="M386.3,171.2c-3.3-2.8-8.3-0.8-8.9,3.5c-2.3,14.6-12.3,32.6-30,42.7c1,0.4,2,0.7,3,1.2
	c9.8,5,14.9,15.6,13.6,25.9c0,0,35.9-18.1,51-40.6C410.5,193.1,395.8,179.4,386.3,171.2z"/>
<path fill="#347EAB" d="M374.4,318.5c4.1-1.4,4.9-6.7,1.6-9.5c-11.3-9.5-21.6-27.4-21.2-47.7c-0.8,0.7-1.6,1.4-2.5,2
	c-9.4,5.9-21,4.8-29.2-1.7c0,0-3,40.1,8.6,64.6C343.1,328,362.5,322.5,374.4,318.5z"/>
<path fill="#347EAB" d="M302.9,164.5c-4.1,1.4-4.9,6.7-1.6,9.5c11.3,9.5,21.6,27.4,21.2,47.7c0.8-0.7,1.6-1.4,2.5-2
	c9.4-5.9,21-4.8,29.2,1.7c0,0,3-40.1-8.6-64.6C334.2,155,314.8,160.5,302.9,164.5z"/>
<g>
	<rect x="118.6" y="394.1" fill="#4DC4FF" width="16.9" height="16.9"/>
	<rect x="144.1" y="394.1" fill="#4DC4FF" width="16.9" height="16.9"/>
	<rect x="169.5" y="394.1" fill="#4DC4FF" width="16.9" height="16.9"/>
	<rect x="194.9" y="394.1" fill="#4DC4FF" width="16.9" height="16.9"/>
	<rect x="220.3" y="394.1" fill="#4DC4FF" width="16.9" height="16.9"/>
	<rect x="245.8" y="394.1" fill="#4DC4FF" width="16.9" height="16.9"/>
	<rect x="271.2" y="394.1" fill="#4DC4FF" width="16.9" height="16.9"/>
</g>
<path fill="#D3D3D3" d="M33.9,63.6H8.5C3.8,63.6,0,67.3,0,72c0,4.7,3.8,8.5,8.5,8.5h16.9V428c0,4.7,3.8,8.5,8.5,8.5s8.5-3.8,8.5-8.5
	V72C42.4,67.3,38.6,63.6,33.9,63.6z"/>
</svg>
